<svg width="162" height="37" viewBox="0 0 162 37" fill="none" xmlns="http://www.w3.org/2000/svg">
<path d="M0.813248 2.11213H18.9171C21.1286 2.11213 23.051 2.35063 24.6844 2.82762C26.3321 3.29015 27.6981 3.93336 28.7821 4.75725C29.8662 5.58114 30.6684 6.56403 31.1887 7.70591C31.7235 8.83334 31.991 10.0547 31.991 11.37C31.991 13.5237 31.3116 15.41 29.9529 17.0289C31.514 17.9539 32.6775 19.1536 33.4436 20.628C34.2097 22.1023 34.5927 23.779 34.5927 25.658C34.5927 27.2335 34.3253 28.6573 33.7905 29.9292C33.2701 31.2012 32.4679 32.2925 31.3839 33.2031C30.3143 34.0993 28.9556 34.7931 27.3078 35.2845C25.6745 35.7615 23.7448 36 21.5189 36H0.813248V2.11213ZM21.5622 15.1209C22.1549 15.1209 22.733 15.1426 23.2968 15.186C24.2652 14.2609 24.7494 13.2057 24.7494 12.0205C24.7494 10.7919 24.2652 9.84513 23.2968 9.18024C22.3428 8.50089 20.9407 8.16122 19.0906 8.16122H7.68622V15.1209H21.5622ZM21.6923 30.016C23.5425 30.016 24.9445 29.6185 25.8985 28.8235C26.8669 28.0285 27.3512 26.9083 27.3512 25.4629C27.3512 24.0175 26.8669 22.89 25.8985 22.0806C24.9445 21.2712 23.5425 20.8665 21.6923 20.8665H7.68622V30.016H21.6923ZM44.1542 6.92538C43.5182 6.92538 42.94 6.83866 42.4197 6.66521C41.9138 6.4773 41.4801 6.23158 41.1188 5.92804C40.7574 5.61005 40.4756 5.2487 40.2732 4.84398C40.0853 4.42481 39.9914 3.98395 39.9914 3.52142C39.9914 3.04443 40.0853 2.60358 40.2732 2.19886C40.4756 1.77969 40.7574 1.41833 41.1188 1.1148C41.4801 0.811257 41.9138 0.572763 42.4197 0.399312C42.94 0.211408 43.5182 0.117456 44.1542 0.117456C44.8046 0.117456 45.3828 0.211408 45.8887 0.399312C46.409 0.572763 46.8499 0.811257 47.2112 1.1148C47.5726 1.41833 47.8472 1.77969 48.0351 2.19886C48.2375 2.60358 48.3386 3.04443 48.3386 3.52142C48.3386 3.98395 48.2375 4.42481 48.0351 4.84398C47.8472 5.2487 47.5726 5.61005 47.2112 5.92804C46.8499 6.23158 46.409 6.4773 45.8887 6.66521C45.3828 6.83866 44.8046 6.92538 44.1542 6.92538ZM40.9453 10.4161H47.363V36H40.9453V10.4161ZM55.7753 0.0307304H62.193V36H55.7753V0.0307304ZM70.6053 0.0307304H77.023V36H70.6053V0.0307304ZM83.7225 23.208C83.7225 21.3724 84.0911 19.6523 84.8283 18.0479C85.5799 16.4435 86.6423 15.0414 88.0154 13.8417C89.403 12.642 91.0725 11.6953 93.0238 11.0015C94.9896 10.3077 97.1938 9.96076 99.6366 9.96076C102.079 9.96076 104.276 10.3077 106.228 11.0015C108.193 11.6953 109.863 12.642 111.236 13.8417C112.624 15.0414 113.686 16.4435 114.423 18.0479C115.175 19.6523 115.551 21.3724 115.551 23.208C115.551 25.0437 115.175 26.7638 114.423 28.3682C113.686 29.9726 112.624 31.3747 111.236 32.5744C109.863 33.7741 108.193 34.7208 106.228 35.4146C104.276 36.1084 102.079 36.4553 99.6366 36.4553C97.1938 36.4553 94.9896 36.1084 93.0238 35.4146C91.0725 34.7208 89.403 33.7741 88.0154 32.5744C86.6423 31.3747 85.5799 29.9726 84.8283 28.3682C84.0911 26.7638 83.7225 25.0437 83.7225 23.208ZM90.4654 23.208C90.4654 24.2343 90.6678 25.2099 91.0725 26.135C91.4917 27.0456 92.0915 27.8551 92.872 28.5633C93.667 29.2571 94.6282 29.8136 95.7556 30.2328C96.8975 30.6375 98.1912 30.8399 99.6366 30.8399C101.082 30.8399 102.368 30.6375 103.496 30.2328C104.638 29.8136 105.599 29.2571 106.379 28.5633C107.174 27.8551 107.774 27.0456 108.179 26.135C108.598 25.2099 108.808 24.2343 108.808 23.208C108.808 22.1818 108.598 21.2061 108.179 20.2811C107.774 19.356 107.174 18.5466 106.379 17.8528C105.599 17.1445 104.638 16.588 103.496 16.1833C102.368 15.7641 101.082 15.5545 99.6366 15.5545C98.1912 15.5545 96.8975 15.7641 95.7556 16.1833C94.6282 16.588 93.667 17.1445 92.872 17.8528C92.0915 18.5466 91.4917 19.356 91.0725 20.2811C90.6678 21.2061 90.4654 22.1818 90.4654 23.208ZM118.499 10.3944H125.936L132.592 25.7881L134.543 30.1027L136.928 24.5089L130.597 10.3944H136.842L139.942 17.9828L143.043 10.3944H149.287L142.934 24.5089L145.341 30.1027L147.292 25.7881L153.948 10.3944H161.385L149.265 36H142.284L139.942 31.0567L137.601 36H130.619L118.499 10.3944Z" fill="#3A68FF"/>
</svg>
