<svg width="32" height="32" viewBox="0 0 32 32" fill="none" xmlns="http://www.w3.org/2000/svg">
<path d="M25.75 5H22.5V3.75C22.5 3.55109 22.421 3.36032 22.2803 3.21967C22.1397 3.07902 21.9489 3 21.75 3C21.5511 3 21.3603 3.07902 21.2197 3.21967C21.079 3.36032 21 3.55109 21 3.75V5H10.5V3.75C10.5 3.55109 10.421 3.36032 10.2803 3.21967C10.1397 3.07902 9.94891 3 9.75 3C9.55109 3 9.36032 3.07902 9.21967 3.21967C9.07902 3.36032 9 3.55109 9 3.75V5H5.75C5.28587 5 4.84075 5.18437 4.51256 5.51256C4.18437 5.84075 4 6.28587 4 6.75V26.75C4 27.2141 4.18437 27.6592 4.51256 27.9874C4.84075 28.3156 5.28587 28.5 5.75 28.5H25.75C26.2141 28.5 26.6592 28.3156 26.9874 27.9874C27.3156 27.6592 27.5 27.2141 27.5 26.75V6.75C27.5 6.28587 27.3156 5.84075 26.9874 5.51256C26.6592 5.18437 26.2141 5 25.75 5ZM5.75 6.5H9V7.75C9 7.94891 9.07902 8.13968 9.21967 8.28033C9.36032 8.42098 9.55109 8.5 9.75 8.5C9.94891 8.5 10.1397 8.42098 10.2803 8.28033C10.421 8.13968 10.5 7.94891 10.5 7.75V6.5H21V7.75C21 7.94891 21.079 8.13968 21.2197 8.28033C21.3603 8.42098 21.5511 8.5 21.75 8.5C21.9489 8.5 22.1397 8.42098 22.2803 8.28033C22.421 8.13968 22.5 7.94891 22.5 7.75V6.5H25.75C25.8163 6.5 25.8799 6.52634 25.9268 6.57322C25.9737 6.62011 26 6.6837 26 6.75V11H5.5V6.75C5.5 6.6837 5.52634 6.62011 5.57322 6.57322C5.62011 6.52634 5.6837 6.5 5.75 6.5ZM25.75 27H5.75C5.6837 27 5.62011 26.9737 5.57322 26.9268C5.52634 26.8799 5.5 26.8163 5.5 26.75V12.5H26V26.75C26 26.8163 25.9737 26.8799 25.9268 26.9268C25.8799 26.9737 25.8163 27 25.75 27ZM20.78 16.22C20.9205 16.3606 20.9993 16.5512 20.9993 16.75C20.9993 16.9488 20.9205 17.1394 20.78 17.28L14.78 23.28C14.6394 23.4205 14.4488 23.4993 14.25 23.4993C14.0512 23.4993 13.8606 23.4205 13.72 23.28L10.72 20.28C10.5875 20.1378 10.5154 19.9498 10.5188 19.7555C10.5223 19.5612 10.601 19.3758 10.7384 19.2384C10.8758 19.101 11.0612 19.0223 11.2555 19.0188C11.4498 19.0154 11.6378 19.0875 11.78 19.22L14.25 21.6887L19.72 16.22C19.8606 16.0795 20.0512 16.0007 20.25 16.0007C20.4488 16.0007 20.6394 16.0795 20.78 16.22Z" fill="white" fill-opacity="0.7"/>
</svg>
