<svg width="33" height="32" viewBox="0 0 33 32" fill="none" xmlns="http://www.w3.org/2000/svg">
<path d="M28.5 25.25H27.25V5C27.25 4.80109 27.171 4.61032 27.0303 4.46967C26.8897 4.32902 26.6989 4.25 26.5 4.25H19.5C19.3011 4.25 19.1103 4.32902 18.9697 4.46967C18.829 4.61032 18.75 4.80109 18.75 5V10.25H12.5C12.3011 10.25 12.1103 10.329 11.9697 10.4697C11.829 10.6103 11.75 10.8011 11.75 11V16.25H6.5C6.30109 16.25 6.11032 16.329 5.96967 16.4697C5.82902 16.6103 5.75 16.8011 5.75 17V25.25H4.5C4.30109 25.25 4.11032 25.329 3.96967 25.4697C3.82902 25.6103 3.75 25.8011 3.75 26C3.75 26.1989 3.82902 26.3897 3.96967 26.5303C4.11032 26.671 4.30109 26.75 4.5 26.75H28.5C28.6989 26.75 28.8897 26.671 29.0303 26.5303C29.171 26.3897 29.25 26.1989 29.25 26C29.25 25.8011 29.171 25.6103 29.0303 25.4697C28.8897 25.329 28.6989 25.25 28.5 25.25ZM20.25 5.75H25.75V25.25H20.25V5.75ZM13.25 11.75H18.75V25.25H13.25V11.75ZM7.25 17.75H11.75V25.25H7.25V17.75Z" fill="white" fill-opacity="0.7"/>
</svg>
