<svg width="33" height="32" viewBox="0 0 33 32" fill="none" xmlns="http://www.w3.org/2000/svg">
<path d="M14.575 19.8037C15.9678 19.0143 17.0601 17.7861 17.6815 16.3108C18.3029 14.8354 18.4186 13.1958 18.0104 11.6479C17.6022 10.0999 16.6931 8.73052 15.425 7.75343C14.1568 6.77634 12.6009 6.24646 11 6.24646C9.39911 6.24646 7.84323 6.77634 6.57508 7.75343C5.30694 8.73052 4.39786 10.0999 3.98966 11.6479C3.58146 13.1958 3.6971 14.8354 4.31854 16.3108C4.93999 17.7861 6.03228 19.0143 7.42502 19.8037C4.84374 20.6267 2.62695 22.3179 1.15127 24.59C1.04253 24.7566 1.00442 24.9595 1.04533 25.1542C1.08623 25.3489 1.2028 25.5194 1.36939 25.6281C1.53598 25.7369 1.73895 25.775 1.93363 25.7341C2.12832 25.6932 2.29878 25.5766 2.40752 25.41C3.33828 23.9789 4.61173 22.803 6.11226 21.9889C7.6128 21.1749 9.29289 20.7485 11 20.7485C12.7071 20.7485 14.3872 21.1749 15.8878 21.9889C17.3883 22.803 18.6618 23.9789 19.5925 25.41C19.7083 25.5584 19.8758 25.6579 20.0615 25.6886C20.2473 25.7193 20.4378 25.679 20.5952 25.5757C20.7526 25.4725 20.8655 25.3138 20.9113 25.1311C20.9571 24.9485 20.9325 24.7554 20.8425 24.59C19.3684 22.319 17.154 20.6279 14.575 19.8037ZM5.25002 13.5C5.25002 12.3628 5.58725 11.2511 6.21907 10.3055C6.85089 9.35989 7.74891 8.62289 8.79959 8.18769C9.85026 7.75249 11.0064 7.63862 12.1218 7.86048C13.2372 8.08235 14.2617 8.62998 15.0659 9.43413C15.87 10.2383 16.4177 11.2628 16.6395 12.3782C16.8614 13.4936 16.7475 14.6498 16.3123 15.7004C15.8771 16.7511 15.1401 17.6491 14.1945 18.2809C13.249 18.9128 12.1373 19.25 11 19.25C9.47563 19.248 8.01425 18.6416 6.93635 17.5637C5.85844 16.4858 5.252 15.0244 5.25002 13.5ZM31.625 25.625C31.4586 25.7336 31.2558 25.7717 31.0613 25.7309C30.8667 25.6902 30.6963 25.5738 30.5875 25.4075C29.6584 23.9763 28.3859 22.8003 26.886 21.9868C25.386 21.1733 23.7064 20.7481 22 20.75C21.8011 20.75 21.6103 20.671 21.4697 20.5303C21.329 20.3897 21.25 20.1989 21.25 20C21.25 19.8011 21.329 19.6103 21.4697 19.4697C21.6103 19.329 21.8011 19.25 22 19.25C22.8467 19.2491 23.6828 19.0613 24.4486 18.6999C25.2143 18.3385 25.8907 17.8124 26.4296 17.1592C26.9684 16.5061 27.3564 15.742 27.5657 14.9216C27.7751 14.1011 27.8006 13.2446 27.6406 12.4131C27.4805 11.5816 27.1388 10.7958 26.6398 10.1117C26.1409 9.42759 25.497 8.86212 24.7542 8.45569C24.0114 8.04927 23.188 7.81191 22.3428 7.76058C21.4976 7.70924 20.6516 7.84521 19.865 8.15875C19.7734 8.19625 19.6753 8.21526 19.5763 8.21466C19.4773 8.21407 19.3794 8.19388 19.2883 8.15528C19.1972 8.11667 19.1146 8.0604 19.0453 7.98972C18.976 7.91903 18.9213 7.83533 18.8846 7.74344C18.8478 7.65154 18.8295 7.55327 18.8309 7.4543C18.8323 7.35532 18.8532 7.2576 18.8925 7.16676C18.9319 7.07592 18.9888 6.99376 19.06 6.92502C19.1312 6.85628 19.2153 6.80232 19.3075 6.76625C21.0135 6.08609 22.9141 6.07876 24.6253 6.74575C26.3366 7.41274 27.7309 8.70432 28.5266 10.3596C29.3224 12.0149 29.4602 13.9105 28.9123 15.6635C28.3645 17.4165 27.1717 18.8962 25.575 19.8037C28.1563 20.6267 30.3731 22.3179 31.8488 24.59C31.956 24.757 31.9927 24.9597 31.9507 25.1537C31.9088 25.3477 31.7917 25.5172 31.625 25.625Z" fill="white" fill-opacity="0.7"/>
</svg>
