<svg width="77" height="76" viewBox="0 0 77 76" fill="none" xmlns="http://www.w3.org/2000/svg">
<path d="M0.750573 0.354661H41.1625C46.0991 0.354661 50.3903 0.887034 54.0363 1.95178C57.7145 2.98426 60.7635 4.42005 63.1834 6.25916C65.6033 8.09827 67.394 10.2923 68.5555 12.8412C69.7493 15.3579 70.3462 18.0843 70.3462 21.0204C70.3462 25.8279 68.8298 30.0385 65.7969 33.6522C69.2815 35.7171 71.8788 38.3951 73.5889 41.6862C75.2989 44.9772 76.1539 48.7199 76.1539 52.9144C76.1539 56.4313 75.557 59.6094 74.3632 62.4487C73.2017 65.288 71.411 67.724 68.9911 69.7567C66.6035 71.7571 63.5706 73.3059 59.8924 74.4029C56.2464 75.4676 51.939 76 46.9702 76H0.750573V0.354661ZM47.067 29.3932C48.3899 29.3932 49.6805 29.4416 50.9388 29.5384C53.1006 27.4734 54.1814 25.1181 54.1814 22.4723C54.1814 19.7298 53.1006 17.6164 50.9388 16.1323C48.8093 14.6158 45.6796 13.8576 41.5497 13.8576H16.0926V29.3932H47.067ZM47.3574 62.6423C51.4873 62.6423 54.617 61.755 56.7465 59.9804C58.9083 58.2058 59.9891 55.7053 59.9891 52.4788C59.9891 49.2523 58.9083 46.7356 56.7465 44.9288C54.617 43.1219 51.4873 42.2185 47.3574 42.2185H16.0926V62.6423H47.3574Z" fill="#3A68FF"/>
</svg>
